<svg xmlns="http://www.w3.org/2000/svg" xmlns:xlink="http://www.w3.org/1999/xlink" width="500" zoomAndPan="magnify" viewBox="0 0 375 374.999991" height="500" preserveAspectRatio="xMidYMid meet" version="1.0"><path fill="#39b7ff" d="M 248.984375 82.234375 C 252.535156 82.234375 255.453125 85.164062 255.453125 88.730469 L 255.453125 153.769531 C 255.453125 157.335938 252.535156 160.265625 248.984375 160.265625 L 82.613281 160.265625 C 79.0625 160.265625 76.140625 157.335938 76.140625 153.769531 L 76.140625 88.730469 C 76.140625 85.164062 79.0625 82.234375 82.613281 82.234375 L 248.984375 82.234375 M 248.984375 76.25 L 82.613281 76.25 C 75.761719 76.25 70.179688 81.851562 70.179688 88.730469 L 70.179688 153.769531 C 70.179688 160.648438 75.761719 166.25 82.613281 166.25 L 248.984375 166.25 C 255.835938 166.25 261.417969 160.648438 261.417969 153.769531 L 261.417969 88.730469 C 261.417969 81.851562 255.835938 76.25 248.984375 76.25 " fill-opacity="1" fill-rule="nonzero"/><path fill="#39b7ff" d="M 261.019531 206.917969 C 263.53125 209.433594 263.523438 213.566406 261 216.089844 L 215.011719 262.078125 C 212.492188 264.597656 208.355469 264.605469 205.84375 262.09375 L 88.203125 144.453125 C 85.691406 141.941406 85.699219 137.804688 88.21875 135.285156 L 134.207031 89.292969 C 136.730469 86.773438 140.863281 86.765625 143.378906 89.277344 L 261.019531 206.917969 M 265.25 202.6875 L 147.609375 85.046875 C 142.765625 80.199219 134.855469 80.214844 129.992188 85.078125 L 84 131.066406 C 79.136719 135.929688 79.125 143.839844 83.96875 148.6875 L 201.609375 266.328125 C 206.457031 271.171875 214.367188 271.15625 219.230469 266.296875 L 265.21875 220.304688 C 270.082031 215.441406 270.097656 207.53125 265.25 202.6875 " fill-opacity="1" fill-rule="nonzero"/><path fill="#39b7ff" d="M 278.058594 270.683594 C 278.058594 274.234375 275.128906 277.15625 271.5625 277.15625 L 206.523438 277.15625 C 202.957031 277.15625 200.027344 274.234375 200.027344 270.683594 L 200.027344 104.3125 C 200.027344 100.761719 202.957031 97.839844 206.523438 97.839844 L 271.5625 97.839844 C 275.128906 97.839844 278.058594 100.761719 278.058594 104.3125 L 278.058594 270.683594 M 284.042969 270.683594 L 284.042969 104.3125 C 284.042969 97.460938 278.441406 91.878906 271.5625 91.878906 L 206.523438 91.878906 C 199.648438 91.878906 194.042969 97.460938 194.042969 104.3125 L 194.042969 270.683594 C 194.042969 277.535156 199.648438 283.117188 206.523438 283.117188 L 271.5625 283.117188 C 278.441406 283.117188 284.042969 277.535156 284.042969 270.683594 " fill-opacity="1" fill-rule="nonzero"/><path fill="#39b7ff" d="M 292.246094 216.167969 C 295.800781 216.167969 298.71875 219.097656 298.71875 222.664062 L 298.71875 287.703125 C 298.71875 291.269531 295.800781 294.199219 292.246094 294.199219 L 125.878906 294.199219 C 122.324219 294.199219 119.40625 291.269531 119.40625 287.703125 L 119.40625 222.664062 C 119.40625 219.097656 122.324219 216.167969 125.878906 216.167969 L 292.246094 216.167969 M 292.246094 210.183594 L 125.878906 210.183594 C 119.023438 210.183594 113.441406 215.789062 113.441406 222.664062 L 113.441406 287.703125 C 113.441406 294.582031 119.023438 300.183594 125.878906 300.183594 L 292.246094 300.183594 C 299.101562 300.183594 304.683594 294.582031 304.683594 287.703125 L 304.683594 222.664062 C 304.683594 215.789062 299.101562 210.183594 292.246094 210.183594 " fill-opacity="1" fill-rule="nonzero"/></svg>