<svg xmlns="http://www.w3.org/2000/svg" xmlns:xlink="http://www.w3.org/1999/xlink" width="100" zoomAndPan="magnify" viewBox="0 0 75 74.999997" height="100" preserveAspectRatio="xMidYMid meet" version="1.0"><defs><g/><clipPath id="74dd3cb765"><path d="M 7.699219 31.925781 L 29.050781 31.925781 L 29.050781 40.175781 L 7.699219 40.175781 Z M 7.699219 31.925781 " clip-rule="nonzero"/></clipPath></defs><g clip-path="url(#74dd3cb765)"><path fill="#ffde59" d="M 29.039062 36.050781 L 29.050781 36.054688 L 29.050781 36.050781 Z M 21.820312 31.925781 L 22.878906 36.050781 L 21.820312 40.179688 L 27.980469 40.179688 L 29.039062 36.050781 L 27.980469 31.925781 Z M 22.023438 36.050781 L 22.03125 36.054688 L 22.03125 36.050781 Z M 14.800781 31.925781 L 15.863281 36.050781 L 14.800781 40.179688 L 20.964844 40.179688 L 22.023438 36.050781 L 20.964844 31.925781 Z M 15.089844 36.050781 L 15.101562 36.054688 L 15.101562 36.050781 Z M 7.699219 31.925781 L 7.699219 40.179688 L 14.03125 40.179688 L 15.089844 36.050781 L 14.03125 31.925781 L 7.699219 31.925781 " fill-opacity="1" fill-rule="nonzero"/></g><g fill="#ffffff" fill-opacity="1"><g transform="translate(31.670122, 38.063191)"><g><path d="M 1.863281 -5.21875 C 1.519531 -5.21875 1.289062 -5.210938 1.179688 -5.195312 C 1.042969 -5.175781 0.945312 -5.121094 0.878906 -5.046875 C 0.828125 -4.988281 0.78125 -4.875 0.753906 -4.726562 C 0.730469 -4.636719 0.699219 -4.449219 0.65625 -4.167969 L 0.632812 -3.964844 L 1.691406 -3.964844 Z M 0.597656 -3.699219 L 0.148438 -0.542969 C 0.140625 -0.46875 0.132812 -0.425781 0.121094 -0.394531 C 0.113281 -0.359375 0.0976562 -0.320312 0.0664062 -0.285156 C 0.0429688 -0.253906 0.0078125 -0.214844 -0.0507812 -0.15625 C -0.0820312 -0.125 -0.132812 -0.0742188 -0.222656 0 L 0.125 0 C 0.394531 0 0.582031 -0.0078125 0.679688 -0.015625 C 0.84375 -0.03125 0.960938 -0.0742188 1.035156 -0.140625 C 1.101562 -0.207031 1.15625 -0.320312 1.183594 -0.476562 C 1.214844 -0.574219 1.246094 -0.761719 1.28125 -1.042969 L 1.65625 -3.699219 Z M 0.597656 -3.699219 "/></g></g></g><g fill="#ffffff" fill-opacity="1"><g transform="translate(33.384846, 38.063191)"><g><path d="M 0.515625 -3.691406 C 0.46875 -3.390625 0.441406 -3.191406 0.433594 -3.085938 L 0.433594 -3.027344 C 0.433594 -2.9375 0.449219 -2.871094 0.46875 -2.816406 C 0.515625 -2.742188 0.613281 -2.691406 0.753906 -2.667969 C 0.855469 -2.652344 1.082031 -2.648438 1.425781 -2.648438 L 2.789062 -2.648438 C 2.878906 -2.648438 2.929688 -2.648438 2.953125 -2.640625 C 2.988281 -2.640625 3.011719 -2.625 3.027344 -2.609375 C 3.042969 -2.601562 3.050781 -2.570312 3.050781 -2.535156 L 3.050781 -2.488281 C 3.050781 -2.46875 3.042969 -2.429688 3.027344 -2.371094 L 1.265625 -2.371094 C 0.96875 -2.371094 0.761719 -2.363281 0.65625 -2.332031 C 0.558594 -2.320312 0.484375 -2.28125 0.425781 -2.230469 C 0.351562 -2.160156 0.296875 -2.035156 0.261719 -1.839844 C 0.246094 -1.753906 0.214844 -1.582031 0.179688 -1.320312 L 0.140625 -1.042969 C 0.113281 -0.78125 0.0898438 -0.605469 0.0820312 -0.507812 C 0.0820312 -0.476562 0.0742188 -0.441406 0.0742188 -0.402344 C 0.0742188 -0.296875 0.0898438 -0.222656 0.121094 -0.164062 C 0.164062 -0.0898438 0.261719 -0.0429688 0.410156 -0.0234375 C 0.515625 -0.0078125 0.730469 0 1.058594 0 L 2.699219 0 C 3.09375 0 3.347656 -0.015625 3.453125 -0.0390625 C 3.570312 -0.0664062 3.660156 -0.125 3.710938 -0.214844 C 3.757812 -0.289062 3.800781 -0.402344 3.832031 -0.558594 C 3.847656 -0.648438 3.875 -0.804688 3.90625 -1.042969 L 1.4375 -1.042969 C 1.363281 -1.050781 1.320312 -1.050781 1.289062 -1.050781 C 1.261719 -1.058594 1.246094 -1.066406 1.230469 -1.082031 C 1.222656 -1.101562 1.222656 -1.132812 1.222656 -1.179688 C 1.222656 -1.207031 1.230469 -1.253906 1.238281 -1.320312 L 2.980469 -1.320312 C 3.257812 -1.320312 3.445312 -1.328125 3.542969 -1.34375 C 3.691406 -1.363281 3.800781 -1.410156 3.863281 -1.484375 C 3.921875 -1.550781 3.964844 -1.65625 3.996094 -1.789062 C 4.019531 -1.894531 4.046875 -2.085938 4.09375 -2.371094 L 4.128906 -2.648438 C 4.167969 -2.9375 4.191406 -3.132812 4.191406 -3.226562 L 4.191406 -3.28125 C 4.191406 -3.429688 4.160156 -3.527344 4.101562 -3.585938 C 4.054688 -3.628906 3.972656 -3.660156 3.855469 -3.675781 C 3.765625 -3.691406 3.601562 -3.691406 3.378906 -3.691406 Z M 0.515625 -3.691406 "/></g></g></g><g fill="#ffffff" fill-opacity="1"><g transform="translate(37.649279, 38.063191)"><g><path d="M 0.515625 -3.691406 C 0.46875 -3.390625 0.441406 -3.191406 0.433594 -3.085938 L 0.433594 -3.027344 C 0.433594 -2.9375 0.449219 -2.871094 0.46875 -2.816406 C 0.515625 -2.742188 0.613281 -2.691406 0.753906 -2.667969 C 0.855469 -2.652344 1.082031 -2.648438 1.425781 -2.648438 L 2.789062 -2.648438 C 2.878906 -2.648438 2.929688 -2.648438 2.953125 -2.640625 C 2.988281 -2.640625 3.011719 -2.625 3.027344 -2.609375 C 3.042969 -2.601562 3.050781 -2.570312 3.050781 -2.535156 L 3.050781 -2.488281 C 3.050781 -2.46875 3.042969 -2.429688 3.027344 -2.371094 L 1.265625 -2.371094 C 0.96875 -2.371094 0.761719 -2.363281 0.65625 -2.332031 C 0.558594 -2.320312 0.484375 -2.28125 0.425781 -2.230469 C 0.351562 -2.160156 0.296875 -2.035156 0.261719 -1.839844 C 0.246094 -1.753906 0.214844 -1.582031 0.179688 -1.320312 L 0.140625 -1.042969 C 0.113281 -0.78125 0.0898438 -0.605469 0.0820312 -0.507812 C 0.0820312 -0.476562 0.0742188 -0.441406 0.0742188 -0.402344 C 0.0742188 -0.296875 0.0898438 -0.222656 0.121094 -0.164062 C 0.164062 -0.0898438 0.261719 -0.0429688 0.410156 -0.0234375 C 0.515625 -0.0078125 0.730469 0 1.058594 0 L 2.699219 0 C 3.09375 0 3.347656 -0.015625 3.453125 -0.0390625 C 3.570312 -0.0664062 3.660156 -0.125 3.710938 -0.214844 C 3.757812 -0.289062 3.800781 -0.402344 3.832031 -0.558594 C 3.847656 -0.648438 3.875 -0.804688 3.90625 -1.042969 L 1.4375 -1.042969 C 1.363281 -1.050781 1.320312 -1.050781 1.289062 -1.050781 C 1.261719 -1.058594 1.246094 -1.066406 1.230469 -1.082031 C 1.222656 -1.101562 1.222656 -1.132812 1.222656 -1.179688 C 1.222656 -1.207031 1.230469 -1.253906 1.238281 -1.320312 L 2.980469 -1.320312 C 3.257812 -1.320312 3.445312 -1.328125 3.542969 -1.34375 C 3.691406 -1.363281 3.800781 -1.410156 3.863281 -1.484375 C 3.921875 -1.550781 3.964844 -1.65625 3.996094 -1.789062 C 4.019531 -1.894531 4.046875 -2.085938 4.09375 -2.371094 L 4.128906 -2.648438 C 4.167969 -2.9375 4.191406 -3.132812 4.191406 -3.226562 L 4.191406 -3.28125 C 4.191406 -3.429688 4.160156 -3.527344 4.101562 -3.585938 C 4.054688 -3.628906 3.972656 -3.660156 3.855469 -3.675781 C 3.765625 -3.691406 3.601562 -3.691406 3.378906 -3.691406 Z M 0.515625 -3.691406 "/></g></g></g><g fill="#ffffff" fill-opacity="1"><g transform="translate(41.913712, 38.063191)"><g><path d="M 0.515625 -3.691406 C 0.46875 -3.390625 0.441406 -3.191406 0.433594 -3.085938 L 0.433594 -3.027344 C 0.433594 -2.9375 0.449219 -2.871094 0.46875 -2.816406 C 0.515625 -2.742188 0.613281 -2.691406 0.753906 -2.667969 C 0.855469 -2.652344 1.082031 -2.648438 1.425781 -2.648438 L 2.789062 -2.648438 C 2.878906 -2.648438 2.929688 -2.648438 2.953125 -2.640625 C 2.988281 -2.640625 3.011719 -2.625 3.027344 -2.609375 C 3.042969 -2.601562 3.050781 -2.570312 3.050781 -2.535156 L 3.050781 -2.488281 C 3.050781 -2.46875 3.042969 -2.429688 3.027344 -2.371094 L 1.265625 -2.371094 C 0.96875 -2.371094 0.761719 -2.363281 0.65625 -2.332031 C 0.558594 -2.320312 0.484375 -2.28125 0.425781 -2.230469 C 0.351562 -2.160156 0.296875 -2.035156 0.261719 -1.839844 C 0.246094 -1.753906 0.214844 -1.582031 0.179688 -1.320312 L 0.140625 -1.042969 C 0.113281 -0.78125 0.0898438 -0.605469 0.0820312 -0.507812 C 0.0820312 -0.476562 0.0742188 -0.441406 0.0742188 -0.402344 C 0.0742188 -0.296875 0.0898438 -0.222656 0.121094 -0.164062 C 0.164062 -0.0898438 0.261719 -0.0429688 0.410156 -0.0234375 C 0.515625 -0.0078125 0.730469 0 1.058594 0 L 2.699219 0 C 3.09375 0 3.347656 -0.015625 3.453125 -0.0390625 C 3.570312 -0.0664062 3.660156 -0.125 3.710938 -0.214844 C 3.757812 -0.289062 3.800781 -0.402344 3.832031 -0.558594 C 3.847656 -0.648438 3.875 -0.804688 3.90625 -1.042969 L 1.4375 -1.042969 C 1.363281 -1.050781 1.320312 -1.050781 1.289062 -1.050781 C 1.261719 -1.058594 1.246094 -1.066406 1.230469 -1.082031 C 1.222656 -1.101562 1.222656 -1.132812 1.222656 -1.179688 C 1.222656 -1.207031 1.230469 -1.253906 1.238281 -1.320312 L 2.980469 -1.320312 C 3.257812 -1.320312 3.445312 -1.328125 3.542969 -1.34375 C 3.691406 -1.363281 3.800781 -1.410156 3.863281 -1.484375 C 3.921875 -1.550781 3.964844 -1.65625 3.996094 -1.789062 C 4.019531 -1.894531 4.046875 -2.085938 4.09375 -2.371094 L 4.128906 -2.648438 C 4.167969 -2.9375 4.191406 -3.132812 4.191406 -3.226562 L 4.191406 -3.28125 C 4.191406 -3.429688 4.160156 -3.527344 4.101562 -3.585938 C 4.054688 -3.628906 3.972656 -3.660156 3.855469 -3.675781 C 3.765625 -3.691406 3.601562 -3.691406 3.378906 -3.691406 Z M 0.515625 -3.691406 "/></g></g></g><g fill="#ffffff" fill-opacity="1"><g transform="translate(46.178145, 38.063191)"><g><path d="M 0.507812 -3.699219 L 0.359375 -2.652344 L 0.132812 -1.042969 C 0.0976562 -0.761719 0.0742188 -0.566406 0.0742188 -0.46875 C 0.0742188 -0.453125 0.0664062 -0.433594 0.0664062 -0.410156 C 0.0664062 -0.289062 0.0898438 -0.207031 0.125 -0.148438 C 0.171875 -0.0898438 0.269531 -0.0429688 0.402344 -0.0234375 C 0.5 -0.0078125 0.691406 0 0.976562 0 L 2.691406 0 C 2.675781 0.121094 2.667969 0.203125 2.652344 0.246094 C 2.648438 0.304688 2.632812 0.351562 2.617188 0.386719 C 2.59375 0.425781 2.550781 0.453125 2.488281 0.46875 C 2.445312 0.476562 2.355469 0.484375 2.207031 0.484375 L 0.917969 0.484375 C 0.691406 0.484375 0.535156 0.484375 0.449219 0.5 C 0.289062 0.515625 0.171875 0.550781 0.0976562 0.613281 C 0.0234375 0.671875 -0.0429688 0.789062 -0.0976562 0.960938 C -0.121094 1.050781 -0.164062 1.246094 -0.222656 1.535156 L 2.476562 1.535156 C 2.78125 1.535156 2.980469 1.527344 3.078125 1.519531 C 3.257812 1.5 3.378906 1.453125 3.445312 1.378906 C 3.503906 1.3125 3.554688 1.207031 3.585938 1.074219 C 3.617188 0.96875 3.644531 0.773438 3.683594 0.484375 L 3.75 0 L 3.898438 -1.042969 L 4.121094 -2.652344 C 4.152344 -2.847656 4.167969 -2.980469 4.175781 -3.058594 C 4.191406 -3.152344 4.191406 -3.226562 4.191406 -3.289062 C 4.191406 -3.382812 4.183594 -3.460938 4.152344 -3.511719 C 4.117188 -3.601562 4.011719 -3.660156 3.847656 -3.683594 C 3.75 -3.699219 3.542969 -3.699219 3.214844 -3.699219 L 3.0625 -2.652344 L 2.878906 -1.3125 C 2.871094 -1.261719 2.863281 -1.222656 2.855469 -1.191406 C 2.847656 -1.164062 2.839844 -1.140625 2.832031 -1.125 C 2.816406 -1.097656 2.796875 -1.074219 2.757812 -1.058594 C 2.734375 -1.050781 2.667969 -1.042969 2.558594 -1.042969 L 1.199219 -1.042969 L 1.425781 -2.652344 C 1.46875 -2.996094 1.492188 -3.199219 1.492188 -3.273438 L 1.492188 -3.316406 C 1.492188 -3.453125 1.46875 -3.542969 1.410156 -3.585938 C 1.347656 -3.652344 1.207031 -3.691406 0.992188 -3.699219 Z M 0.507812 -3.699219 "/></g></g></g><g fill="#ffffff" fill-opacity="1"><g transform="translate(50.435127, 38.063191)"><g><path d="M 0.367188 -2.648438 L 0.328125 -2.371094 C 0.285156 -2.078125 0.253906 -1.886719 0.238281 -1.78125 L 0.238281 -1.691406 C 0.238281 -1.574219 0.269531 -1.492188 0.3125 -1.4375 C 0.371094 -1.386719 0.46875 -1.347656 0.617188 -1.335938 C 0.707031 -1.328125 0.855469 -1.320312 1.058594 -1.320312 L 2.886719 -1.320312 C 2.878906 -1.253906 2.871094 -1.207031 2.863281 -1.179688 C 2.863281 -1.140625 2.847656 -1.109375 2.832031 -1.089844 C 2.816406 -1.074219 2.796875 -1.066406 2.765625 -1.050781 L 0.140625 -1.050781 C 0.0976562 -0.722656 0.0742188 -0.507812 0.0742188 -0.402344 C 0.0742188 -0.289062 0.0898438 -0.207031 0.125 -0.148438 C 0.171875 -0.0976562 0.238281 -0.0585938 0.328125 -0.0390625 C 0.433594 -0.015625 0.671875 0 1.058594 0 L 2.699219 0 C 3.078125 0 3.324219 -0.015625 3.429688 -0.0390625 C 3.542969 -0.0585938 3.625 -0.105469 3.683594 -0.171875 C 3.726562 -0.222656 3.757812 -0.289062 3.789062 -0.394531 C 3.816406 -0.5 3.863281 -0.722656 3.90625 -1.050781 L 3.945312 -1.320312 C 3.980469 -1.617188 4.003906 -1.8125 4.003906 -1.902344 L 4.003906 -1.945312 C 4.003906 -2.085938 3.980469 -2.183594 3.929688 -2.238281 C 3.875 -2.304688 3.773438 -2.339844 3.609375 -2.355469 C 3.519531 -2.371094 3.324219 -2.371094 3.027344 -2.371094 L 1.386719 -2.371094 C 1.402344 -2.453125 1.410156 -2.503906 1.410156 -2.527344 C 1.417969 -2.558594 1.425781 -2.578125 1.4375 -2.59375 C 1.453125 -2.617188 1.484375 -2.632812 1.511719 -2.640625 C 1.542969 -2.648438 1.617188 -2.648438 1.722656 -2.648438 L 3.183594 -2.648438 C 3.421875 -2.648438 3.59375 -2.652344 3.683594 -2.660156 C 3.789062 -2.675781 3.863281 -2.691406 3.921875 -2.722656 C 4.027344 -2.773438 4.101562 -2.871094 4.144531 -3.019531 C 4.183594 -3.125 4.226562 -3.347656 4.273438 -3.691406 L 1.507812 -3.691406 C 1.238281 -3.691406 1.050781 -3.691406 0.945312 -3.675781 C 0.8125 -3.660156 0.714844 -3.628906 0.648438 -3.578125 C 0.574219 -3.527344 0.515625 -3.421875 0.476562 -3.273438 C 0.449219 -3.175781 0.410156 -2.96875 0.367188 -2.648438 Z M 0.367188 -2.648438 "/></g></g></g><g fill="#ffffff" fill-opacity="1"><g transform="translate(54.669746, 38.063191)"><g><path d="M 0.515625 -3.699219 L 0.367188 -2.652344 L 0.140625 -1.050781 C 0.105469 -0.753906 0.0820312 -0.550781 0.0742188 -0.449219 L 0.0742188 -0.410156 C 0.0742188 -0.3125 0.0898438 -0.238281 0.113281 -0.179688 C 0.15625 -0.105469 0.246094 -0.0507812 0.378906 -0.03125 C 0.484375 -0.015625 0.707031 0 1.050781 0 L 2.699219 0 C 3.035156 0 3.25 -0.0078125 3.355469 -0.0234375 C 3.519531 -0.0429688 3.628906 -0.0976562 3.699219 -0.179688 C 3.742188 -0.246094 3.78125 -0.34375 3.808594 -0.46875 C 3.839844 -0.566406 3.871094 -0.761719 3.90625 -1.050781 L 4.128906 -2.648438 C 4.175781 -2.960938 4.199219 -3.160156 4.199219 -3.25 L 4.199219 -3.296875 C 4.199219 -3.414062 4.183594 -3.496094 4.136719 -3.546875 C 4.09375 -3.617188 4.003906 -3.660156 3.863281 -3.675781 C 3.765625 -3.691406 3.546875 -3.699219 3.214844 -3.699219 L 3.058594 -2.558594 L 2.839844 -1.050781 C 2.742188 -1.050781 2.675781 -1.058594 2.648438 -1.058594 C 2.617188 -1.066406 2.59375 -1.082031 2.578125 -1.101562 C 2.570312 -1.117188 2.570312 -1.148438 2.570312 -1.183594 C 2.570312 -1.214844 2.578125 -1.261719 2.585938 -1.328125 L 2.773438 -2.652344 C 2.804688 -2.90625 2.824219 -3.070312 2.824219 -3.160156 C 2.832031 -3.207031 2.832031 -3.242188 2.832031 -3.273438 C 2.832031 -3.378906 2.816406 -3.460938 2.789062 -3.519531 C 2.742188 -3.609375 2.648438 -3.660156 2.496094 -3.675781 C 2.402344 -3.691406 2.191406 -3.699219 1.863281 -3.699219 L 1.683594 -2.476562 L 1.492188 -1.050781 C 1.386719 -1.050781 1.328125 -1.058594 1.296875 -1.058594 C 1.265625 -1.066406 1.253906 -1.082031 1.238281 -1.097656 C 1.230469 -1.109375 1.222656 -1.132812 1.222656 -1.164062 C 1.222656 -1.191406 1.230469 -1.246094 1.238281 -1.320312 L 1.425781 -2.652344 C 1.460938 -2.878906 1.484375 -3.035156 1.484375 -3.117188 C 1.5 -3.191406 1.5 -3.25 1.5 -3.296875 C 1.5 -3.429688 1.484375 -3.511719 1.425781 -3.570312 C 1.371094 -3.628906 1.273438 -3.667969 1.132812 -3.683594 C 1.035156 -3.699219 0.828125 -3.699219 0.515625 -3.699219 Z M 0.515625 -3.699219 "/></g></g></g><g fill="#ffffff" fill-opacity="1"><g transform="translate(58.934179, 38.063191)"><g><path d="M 3.398438 -3.699219 L 0.515625 -3.699219 L 0.515625 -3.570312 C 0.515625 -3.378906 0.523438 -3.226562 0.523438 -3.136719 C 0.535156 -2.976562 0.566406 -2.863281 0.613281 -2.796875 C 0.664062 -2.730469 0.753906 -2.683594 0.886719 -2.660156 C 0.976562 -2.652344 1.164062 -2.648438 1.429688 -2.648438 L 3.070312 -2.648438 C 3.0625 -2.566406 3.058594 -2.511719 3.050781 -2.484375 C 3.050781 -2.453125 3.042969 -2.429688 3.027344 -2.414062 C 3.011719 -2.402344 2.988281 -2.386719 2.960938 -2.378906 C 2.945312 -2.378906 2.898438 -2.371094 2.839844 -2.371094 L 1.28125 -2.371094 C 1.007812 -2.371094 0.8125 -2.363281 0.707031 -2.347656 C 0.582031 -2.332031 0.484375 -2.289062 0.417969 -2.222656 C 0.359375 -2.160156 0.304688 -2.042969 0.269531 -1.863281 C 0.253906 -1.773438 0.222656 -1.59375 0.1875 -1.328125 L 0.140625 -1.050781 C 0.105469 -0.753906 0.0820312 -0.550781 0.0742188 -0.449219 L 0.0742188 -0.402344 C 0.0742188 -0.285156 0.0898438 -0.203125 0.132812 -0.140625 C 0.179688 -0.0898438 0.253906 -0.0507812 0.359375 -0.03125 C 0.460938 -0.015625 0.691406 0 1.050781 0 L 2.667969 0 C 3.042969 0 3.28125 -0.015625 3.382812 -0.03125 C 3.488281 -0.0507812 3.570312 -0.0820312 3.628906 -0.125 C 3.699219 -0.179688 3.75 -0.261719 3.78125 -0.367188 C 3.816406 -0.46875 3.863281 -0.691406 3.90625 -1.050781 L 4.011719 -1.8125 L 4.128906 -2.648438 C 4.167969 -2.914062 4.191406 -3.09375 4.191406 -3.183594 C 4.199219 -3.226562 4.199219 -3.257812 4.199219 -3.289062 C 4.199219 -3.445312 4.160156 -3.546875 4.085938 -3.601562 C 4.039062 -3.636719 3.964844 -3.660156 3.863281 -3.675781 C 3.773438 -3.691406 3.617188 -3.699219 3.398438 -3.699219 Z M 1.417969 -1.328125 L 2.886719 -1.328125 C 2.878906 -1.246094 2.871094 -1.191406 2.863281 -1.164062 C 2.855469 -1.132812 2.847656 -1.101562 2.832031 -1.089844 C 2.824219 -1.074219 2.8125 -1.066406 2.78125 -1.058594 C 2.765625 -1.058594 2.722656 -1.050781 2.660156 -1.050781 L 1.199219 -1.050781 C 1.214844 -1.109375 1.222656 -1.15625 1.222656 -1.179688 C 1.230469 -1.238281 1.238281 -1.273438 1.253906 -1.289062 C 1.265625 -1.304688 1.28125 -1.320312 1.304688 -1.320312 C 1.320312 -1.328125 1.355469 -1.328125 1.417969 -1.328125 Z M 1.417969 -1.328125 "/></g></g></g><g fill="#ffffff" fill-opacity="1"><g transform="translate(63.198612, 38.063191)"><g><path d="M 1.019531 0.46875 L 1.089844 0 L 2.824219 0 C 3.117188 0 3.308594 -0.0078125 3.414062 -0.0234375 C 3.542969 -0.0429688 3.628906 -0.0898438 3.691406 -0.148438 C 3.75 -0.207031 3.800781 -0.304688 3.832031 -0.441406 C 3.863281 -0.535156 3.890625 -0.738281 3.929688 -1.042969 L 4.152344 -2.640625 C 4.191406 -2.878906 4.210938 -3.042969 4.21875 -3.125 C 4.226562 -3.191406 4.226562 -3.242188 4.226562 -3.289062 C 4.226562 -3.414062 4.203125 -3.503906 4.152344 -3.5625 C 4.109375 -3.617188 4.035156 -3.644531 3.929688 -3.660156 C 3.832031 -3.683594 3.609375 -3.691406 3.257812 -3.691406 L 1.589844 -3.691406 C 1.261719 -3.691406 1.035156 -3.683594 0.925781 -3.667969 C 0.820312 -3.652344 0.730469 -3.625 0.671875 -3.578125 C 0.597656 -3.527344 0.535156 -3.421875 0.492188 -3.265625 C 0.46875 -3.167969 0.441406 -2.960938 0.394531 -2.640625 L 0.359375 -2.363281 L -0.1875 1.527344 C 0.140625 1.527344 0.351562 1.519531 0.449219 1.507812 C 0.597656 1.492188 0.699219 1.453125 0.761719 1.394531 C 0.828125 1.335938 0.878906 1.238281 0.910156 1.101562 C 0.9375 1 0.976562 0.789062 1.019531 0.46875 Z M 2.617188 -1.042969 L 1.238281 -1.042969 L 1.238281 -1.050781 L 1.417969 -2.363281 C 1.429688 -2.4375 1.445312 -2.488281 1.453125 -2.511719 C 1.46875 -2.558594 1.484375 -2.585938 1.5 -2.601562 C 1.511719 -2.617188 1.535156 -2.632812 1.566406 -2.632812 C 1.59375 -2.640625 1.664062 -2.640625 1.757812 -2.640625 L 3.09375 -2.640625 L 2.90625 -1.320312 C 2.898438 -1.246094 2.894531 -1.199219 2.886719 -1.171875 C 2.878906 -1.140625 2.863281 -1.109375 2.847656 -1.089844 C 2.832031 -1.074219 2.8125 -1.066406 2.773438 -1.050781 C 2.742188 -1.050781 2.691406 -1.042969 2.617188 -1.042969 Z M 2.617188 -1.042969 "/></g></g></g></svg>