<svg xmlns="http://www.w3.org/2000/svg" xmlns:xlink="http://www.w3.org/1999/xlink" width="500" zoomAndPan="magnify" viewBox="0 0 375 374.999991" height="500" preserveAspectRatio="xMidYMid meet" version="1.0"><defs><clipPath id="822e9940ee"><path d="M 38 55 L 337 55 L 337 320.660156 L 38 320.660156 Z M 38 55 " clip-rule="nonzero"/></clipPath></defs><g clip-path="url(#822e9940ee)"><path fill="#ff6363" d="M 314.515625 177.589844 L 314.515625 127.324219 C 314.515625 126.417969 314.472656 125.515625 314.382812 124.617188 C 314.292969 123.714844 314.160156 122.824219 313.984375 121.9375 C 313.808594 121.046875 313.589844 120.171875 313.328125 119.304688 C 313.0625 118.441406 312.757812 117.589844 312.414062 116.753906 C 312.066406 115.917969 311.679688 115.101562 311.253906 114.304688 C 310.828125 113.507812 310.363281 112.730469 309.863281 111.980469 C 309.359375 111.226562 308.820312 110.5 308.246094 109.800781 C 307.675781 109.101562 307.066406 108.433594 306.429688 107.792969 C 305.789062 107.15625 305.117188 106.546875 304.421875 105.972656 C 303.722656 105.398438 302.996094 104.863281 302.242188 104.359375 C 301.492188 103.855469 300.71875 103.390625 299.917969 102.964844 C 299.121094 102.539062 298.304688 102.152344 297.46875 101.808594 C 296.632812 101.460938 295.785156 101.15625 294.917969 100.894531 C 294.054688 100.632812 293.175781 100.410156 292.289062 100.234375 C 291.402344 100.058594 290.507812 99.925781 289.609375 99.835938 C 288.710938 99.75 287.808594 99.703125 286.902344 99.703125 L 280.164062 99.703125 L 270.113281 59.710938 C 270.03125 59.359375 269.914062 59.019531 269.761719 58.691406 C 269.609375 58.363281 269.429688 58.054688 269.21875 57.761719 C 269.003906 57.46875 268.765625 57.199219 268.503906 56.953125 C 268.238281 56.707031 267.953125 56.492188 267.644531 56.300781 C 267.335938 56.113281 267.015625 55.953125 266.675781 55.828125 C 266.335938 55.703125 265.988281 55.609375 265.632812 55.550781 C 265.277344 55.492188 264.917969 55.46875 264.558594 55.484375 C 264.195312 55.496094 263.839844 55.542969 263.488281 55.625 L 81.910156 99.703125 L 66.007812 99.703125 C 65.101562 99.703125 64.199219 99.75 63.300781 99.835938 C 62.402344 99.925781 61.507812 100.058594 60.621094 100.234375 C 59.734375 100.410156 58.855469 100.632812 57.992188 100.894531 C 57.125 101.15625 56.277344 101.460938 55.441406 101.808594 C 54.605469 102.152344 53.789062 102.539062 52.992188 102.964844 C 52.195312 103.390625 51.417969 103.855469 50.667969 104.359375 C 49.914062 104.863281 49.1875 105.398438 48.492188 105.972656 C 47.792969 106.546875 47.121094 107.15625 46.484375 107.792969 C 45.84375 108.433594 45.238281 109.101562 44.664062 109.800781 C 44.089844 110.5 43.550781 111.226562 43.046875 111.980469 C 42.546875 112.730469 42.082031 113.507812 41.65625 114.304688 C 41.230469 115.101562 40.84375 115.917969 40.496094 116.753906 C 40.152344 117.589844 39.847656 118.441406 39.585938 119.304688 C 39.320312 120.171875 39.101562 121.046875 38.925781 121.9375 C 38.75 122.824219 38.617188 123.714844 38.527344 124.617188 C 38.441406 125.515625 38.394531 126.417969 38.394531 127.324219 L 38.394531 293.039062 C 38.394531 293.945312 38.441406 294.847656 38.527344 295.746094 C 38.617188 296.648438 38.75 297.539062 38.925781 298.429688 C 39.101562 299.316406 39.320312 300.191406 39.585938 301.058594 C 39.847656 301.921875 40.152344 302.773438 40.496094 303.609375 C 40.84375 304.445312 41.230469 305.261719 41.65625 306.058594 C 42.082031 306.855469 42.546875 307.632812 43.046875 308.382812 C 43.550781 309.136719 44.089844 309.863281 44.664062 310.5625 C 45.238281 311.261719 45.84375 311.929688 46.484375 312.570312 C 47.121094 313.210938 47.792969 313.816406 48.492188 314.390625 C 49.1875 314.964844 49.914062 315.5 50.667969 316.003906 C 51.417969 316.507812 52.195312 316.972656 52.992188 317.398438 C 53.789062 317.824219 54.605469 318.210938 55.441406 318.558594 C 56.277344 318.902344 57.125 319.207031 57.992188 319.46875 C 58.855469 319.730469 59.734375 319.953125 60.621094 320.128906 C 61.507812 320.304688 62.402344 320.4375 63.300781 320.527344 C 64.199219 320.613281 65.101562 320.660156 66.007812 320.660156 L 286.902344 320.660156 C 287.808594 320.660156 288.710938 320.613281 289.609375 320.527344 C 290.507812 320.4375 291.402344 320.304688 292.289062 320.128906 C 293.175781 319.953125 294.054688 319.730469 294.917969 319.46875 C 295.785156 319.207031 296.632812 318.902344 297.46875 318.558594 C 298.304688 318.210938 299.121094 317.824219 299.917969 317.398438 C 300.71875 316.972656 301.492188 316.507812 302.242188 316.003906 C 302.996094 315.5 303.722656 314.964844 304.421875 314.390625 C 305.117188 313.816406 305.789062 313.210938 306.429688 312.570312 C 307.066406 311.929688 307.675781 311.261719 308.246094 310.5625 C 308.820312 309.863281 309.359375 309.136719 309.863281 308.382812 C 310.363281 307.632812 310.828125 306.855469 311.253906 306.058594 C 311.679688 305.261719 312.066406 304.445312 312.414062 303.609375 C 312.757812 302.773438 313.0625 301.921875 313.328125 301.058594 C 313.589844 300.191406 313.808594 299.316406 313.984375 298.429688 C 314.160156 297.539062 314.292969 296.648438 314.382812 295.746094 C 314.472656 294.847656 314.515625 293.945312 314.515625 293.039062 L 314.515625 243.324219 C 316.0625 243.007812 317.570312 242.5625 319.042969 241.988281 C 320.515625 241.414062 321.925781 240.71875 323.277344 239.902344 C 324.628906 239.085938 325.902344 238.15625 327.09375 237.121094 C 328.285156 236.085938 329.382812 234.957031 330.378906 233.730469 C 331.378906 232.507812 332.265625 231.207031 333.042969 229.832031 C 333.820312 228.453125 334.472656 227.023438 335.003906 225.535156 C 335.53125 224.046875 335.933594 222.523438 336.203125 220.964844 C 336.46875 219.40625 336.605469 217.839844 336.605469 216.257812 L 336.605469 205.210938 C 336.621094 204.410156 336.601562 203.609375 336.550781 202.8125 C 336.496094 202.015625 336.40625 201.21875 336.285156 200.429688 C 336.164062 199.636719 336.007812 198.855469 335.816406 198.078125 C 335.625 197.300781 335.402344 196.53125 335.144531 195.773438 C 334.886719 195.015625 334.597656 194.273438 334.277344 193.539062 C 333.953125 192.804688 333.601562 192.089844 333.214844 191.386719 C 332.832031 190.6875 332.417969 190 331.976562 189.335938 C 331.53125 188.671875 331.058594 188.023438 330.558594 187.398438 C 330.058594 186.773438 329.535156 186.171875 328.980469 185.59375 C 328.429688 185.015625 327.855469 184.460938 327.253906 183.933594 C 326.652344 183.402344 326.03125 182.902344 325.386719 182.425781 C 324.742188 181.949219 324.082031 181.503906 323.398438 181.085938 C 322.714844 180.671875 322.015625 180.28125 321.300781 179.925781 C 320.582031 179.570312 319.851562 179.246094 319.109375 178.953125 C 318.363281 178.660156 317.609375 178.398438 316.839844 178.171875 C 316.074219 177.945312 315.300781 177.75 314.515625 177.589844 Z M 260.835938 67.113281 L 268.789062 99.703125 L 128.742188 99.703125 Z M 286.902344 309.613281 L 66.007812 309.613281 C 65.464844 309.613281 64.921875 309.585938 64.382812 309.53125 C 63.84375 309.476562 63.308594 309.398438 62.773438 309.292969 C 62.242188 309.1875 61.71875 309.054688 61.199219 308.898438 C 60.679688 308.738281 60.167969 308.558594 59.667969 308.351562 C 59.164062 308.140625 58.675781 307.910156 58.199219 307.65625 C 57.71875 307.398438 57.253906 307.121094 56.804688 306.820312 C 56.351562 306.515625 55.917969 306.195312 55.496094 305.851562 C 55.078125 305.503906 54.675781 305.140625 54.292969 304.757812 C 53.910156 304.375 53.542969 303.972656 53.199219 303.550781 C 52.855469 303.132812 52.535156 302.699219 52.230469 302.246094 C 51.929688 301.796875 51.652344 301.332031 51.394531 300.851562 C 51.140625 300.371094 50.910156 299.882812 50.699219 299.382812 C 50.492188 298.878906 50.3125 298.371094 50.152344 297.851562 C 49.996094 297.332031 49.863281 296.804688 49.757812 296.273438 C 49.652344 295.742188 49.574219 295.203125 49.519531 294.664062 C 49.464844 294.125 49.441406 293.582031 49.441406 293.039062 L 49.441406 127.324219 C 49.441406 126.78125 49.464844 126.238281 49.519531 125.699219 C 49.574219 125.160156 49.652344 124.625 49.757812 124.089844 C 49.863281 123.558594 49.996094 123.03125 50.152344 122.511719 C 50.3125 121.996094 50.492188 121.484375 50.699219 120.980469 C 50.910156 120.480469 51.140625 119.992188 51.394531 119.511719 C 51.652344 119.035156 51.929688 118.570312 52.230469 118.117188 C 52.535156 117.667969 52.855469 117.230469 53.199219 116.8125 C 53.542969 116.390625 53.910156 115.988281 54.292969 115.605469 C 54.675781 115.222656 55.078125 114.859375 55.496094 114.515625 C 55.917969 114.167969 56.351562 113.847656 56.804688 113.546875 C 57.253906 113.242188 57.71875 112.964844 58.199219 112.710938 C 58.675781 112.453125 59.164062 112.222656 59.667969 112.015625 C 60.167969 111.804688 60.679688 111.625 61.199219 111.464844 C 61.71875 111.308594 62.242188 111.175781 62.773438 111.070312 C 63.308594 110.964844 63.84375 110.886719 64.382812 110.832031 C 64.921875 110.777344 65.464844 110.753906 66.007812 110.753906 L 286.902344 110.753906 C 287.445312 110.753906 287.988281 110.777344 288.527344 110.832031 C 289.066406 110.886719 289.601562 110.964844 290.136719 111.070312 C 290.667969 111.175781 291.191406 111.308594 291.710938 111.464844 C 292.230469 111.625 292.742188 111.804688 293.242188 112.015625 C 293.746094 112.222656 294.234375 112.453125 294.714844 112.710938 C 295.191406 112.964844 295.65625 113.242188 296.109375 113.546875 C 296.558594 113.847656 296.992188 114.167969 297.414062 114.515625 C 297.832031 114.859375 298.234375 115.222656 298.617188 115.605469 C 299 115.988281 299.367188 116.390625 299.710938 116.8125 C 300.054688 117.230469 300.375 117.667969 300.679688 118.117188 C 300.980469 118.570312 301.257812 119.035156 301.515625 119.511719 C 301.769531 119.992188 302 120.480469 302.210938 120.980469 C 302.417969 121.484375 302.597656 121.996094 302.757812 122.511719 C 302.914062 123.03125 303.046875 123.558594 303.152344 124.089844 C 303.257812 124.625 303.335938 125.160156 303.390625 125.699219 C 303.445312 126.238281 303.46875 126.78125 303.46875 127.324219 L 303.46875 177.039062 L 253.769531 177.039062 C 252.863281 177.039062 251.960938 177.082031 251.0625 177.171875 C 250.164062 177.261719 249.269531 177.394531 248.382812 177.570312 C 247.496094 177.746094 246.617188 177.964844 245.753906 178.226562 C 244.886719 178.492188 244.039062 178.796875 243.203125 179.140625 C 242.367188 179.488281 241.550781 179.875 240.753906 180.300781 C 239.953125 180.726562 239.179688 181.191406 238.429688 181.695312 C 237.675781 182.195312 236.949219 182.734375 236.25 183.308594 C 235.554688 183.882812 234.882812 184.488281 234.246094 185.128906 C 233.605469 185.769531 233 186.4375 232.425781 187.136719 C 231.851562 187.835938 231.3125 188.5625 230.808594 189.3125 C 230.308594 190.066406 229.84375 190.839844 229.417969 191.636719 C 228.992188 192.4375 228.605469 193.253906 228.257812 194.089844 C 227.914062 194.925781 227.609375 195.773438 227.347656 196.640625 C 227.082031 197.507812 226.863281 198.382812 226.6875 199.269531 C 226.511719 200.15625 226.378906 201.050781 226.289062 201.949219 C 226.199219 202.851562 226.15625 203.753906 226.15625 204.65625 L 226.15625 215.707031 C 226.15625 216.609375 226.199219 217.511719 226.289062 218.414062 C 226.378906 219.3125 226.511719 220.207031 226.6875 221.09375 C 226.863281 221.980469 227.082031 222.859375 227.347656 223.722656 C 227.609375 224.589844 227.914062 225.441406 228.257812 226.273438 C 228.605469 227.109375 228.992188 227.925781 229.417969 228.726562 C 229.84375 229.523438 230.308594 230.296875 230.808594 231.050781 C 231.3125 231.800781 231.851562 232.527344 232.425781 233.226562 C 233 233.925781 233.605469 234.597656 234.246094 235.234375 C 234.882812 235.875 235.554688 236.480469 236.25 237.054688 C 236.949219 237.628906 237.675781 238.167969 238.429688 238.671875 C 239.179688 239.171875 239.953125 239.636719 240.753906 240.0625 C 241.550781 240.488281 242.367188 240.875 243.203125 241.222656 C 244.039062 241.570312 244.886719 241.875 245.753906 242.136719 C 246.617188 242.398438 247.496094 242.617188 248.382812 242.792969 C 249.269531 242.972656 250.164062 243.101562 251.0625 243.191406 C 251.960938 243.28125 252.863281 243.324219 253.769531 243.324219 L 303.46875 243.324219 L 303.46875 293.039062 C 303.46875 293.582031 303.445312 294.125 303.390625 294.664062 C 303.335938 295.203125 303.257812 295.742188 303.152344 296.273438 C 303.046875 296.804688 302.914062 297.332031 302.757812 297.851562 C 302.597656 298.371094 302.417969 298.878906 302.210938 299.382812 C 302 299.882812 301.769531 300.371094 301.515625 300.851562 C 301.257812 301.332031 300.980469 301.796875 300.679688 302.246094 C 300.375 302.699219 300.054688 303.132812 299.710938 303.550781 C 299.367188 303.972656 299 304.375 298.617188 304.757812 C 298.234375 305.140625 297.832031 305.503906 297.414062 305.851562 C 296.992188 306.195312 296.558594 306.515625 296.105469 306.820312 C 295.65625 307.121094 295.191406 307.398438 294.714844 307.65625 C 294.234375 307.910156 293.746094 308.140625 293.242188 308.351562 C 292.742188 308.558594 292.230469 308.738281 291.710938 308.898438 C 291.191406 309.054688 290.667969 309.1875 290.136719 309.292969 C 289.601562 309.398438 289.066406 309.476562 288.527344 309.53125 C 287.988281 309.585938 287.445312 309.613281 286.902344 309.613281 Z M 325.558594 215.707031 C 325.558594 216.554688 325.492188 217.398438 325.359375 218.238281 C 325.226562 219.078125 325.03125 219.902344 324.769531 220.710938 C 324.511719 221.519531 324.191406 222.304688 323.8125 223.066406 C 323.433594 223.824219 322.996094 224.554688 322.507812 225.246094 C 322.015625 225.9375 321.472656 226.589844 320.882812 227.199219 C 320.289062 227.808594 319.65625 228.371094 318.976562 228.882812 C 318.300781 229.394531 317.585938 229.851562 316.839844 230.253906 C 316.089844 230.65625 315.316406 231 314.515625 231.28125 C 312.734375 231.957031 310.894531 232.289062 308.992188 232.277344 L 253.769531 232.277344 C 253.226562 232.277344 252.683594 232.25 252.144531 232.199219 C 251.605469 232.144531 251.070312 232.066406 250.535156 231.957031 C 250.003906 231.851562 249.480469 231.722656 248.960938 231.5625 C 248.441406 231.40625 247.929688 231.222656 247.429688 231.015625 C 246.925781 230.808594 246.4375 230.578125 245.960938 230.320312 C 245.480469 230.066406 245.015625 229.785156 244.566406 229.484375 C 244.113281 229.183594 243.679688 228.859375 243.257812 228.515625 C 242.839844 228.171875 242.4375 227.808594 242.054688 227.421875 C 241.671875 227.039062 241.304688 226.636719 240.960938 226.21875 C 240.617188 225.800781 240.296875 225.363281 239.992188 224.914062 C 239.691406 224.460938 239.414062 223.996094 239.15625 223.515625 C 238.902344 223.039062 238.671875 222.550781 238.460938 222.046875 C 238.253906 221.546875 238.074219 221.035156 237.914062 220.515625 C 237.757812 219.996094 237.625 219.472656 237.519531 218.9375 C 237.414062 218.40625 237.335938 217.871094 237.28125 217.332031 C 237.226562 216.789062 237.203125 216.25 237.203125 215.707031 L 237.203125 204.65625 C 237.203125 204.117188 237.226562 203.574219 237.28125 203.035156 C 237.335938 202.492188 237.414062 201.957031 237.519531 201.425781 C 237.625 200.894531 237.757812 200.367188 237.914062 199.847656 C 238.074219 199.328125 238.253906 198.816406 238.460938 198.316406 C 238.671875 197.816406 238.902344 197.324219 239.15625 196.847656 C 239.414062 196.367188 239.691406 195.902344 239.992188 195.453125 C 240.296875 195 240.617188 194.566406 240.960938 194.144531 C 241.304688 193.726562 241.671875 193.324219 242.054688 192.941406 C 242.4375 192.554688 242.839844 192.191406 243.257812 191.847656 C 243.679688 191.503906 244.113281 191.179688 244.566406 190.878906 C 245.015625 190.578125 245.480469 190.300781 245.960938 190.042969 C 246.4375 189.789062 246.925781 189.554688 247.429688 189.347656 C 247.929688 189.140625 248.441406 188.957031 248.960938 188.800781 C 249.480469 188.640625 250.003906 188.511719 250.535156 188.40625 C 251.070312 188.300781 251.605469 188.21875 252.144531 188.167969 C 252.683594 188.113281 253.226562 188.085938 253.769531 188.085938 L 308.992188 188.085938 C 310.894531 188.074219 312.734375 188.40625 314.515625 189.082031 C 315.316406 189.363281 316.089844 189.707031 316.839844 190.109375 C 317.585938 190.511719 318.300781 190.96875 318.976562 191.480469 C 319.65625 191.992188 320.289062 192.554688 320.882812 193.164062 C 321.472656 193.773438 322.015625 194.425781 322.507812 195.117188 C 322.996094 195.8125 323.433594 196.539062 323.8125 197.296875 C 324.191406 198.058594 324.511719 198.84375 324.769531 199.652344 C 325.03125 200.460938 325.226562 201.285156 325.359375 202.125 C 325.492188 202.964844 325.558594 203.808594 325.558594 204.65625 Z M 325.558594 215.707031 " fill-opacity="1" fill-rule="nonzero"/></g><path fill="#ff6363" d="M 264.8125 193.609375 C 264.269531 193.609375 263.730469 193.636719 263.191406 193.691406 C 262.648438 193.742188 262.113281 193.824219 261.582031 193.929688 C 261.050781 194.035156 260.523438 194.167969 260.003906 194.324219 C 259.484375 194.480469 258.976562 194.664062 258.472656 194.871094 C 257.972656 195.078125 257.480469 195.3125 257.003906 195.566406 C 256.523438 195.824219 256.058594 196.101562 255.609375 196.402344 C 255.15625 196.703125 254.722656 197.027344 254.304688 197.371094 C 253.882812 197.714844 253.484375 198.082031 253.097656 198.464844 C 252.714844 198.847656 252.351562 199.25 252.007812 199.667969 C 251.664062 200.089844 251.339844 200.523438 251.039062 200.976562 C 250.738281 201.425781 250.457031 201.890625 250.203125 202.371094 C 249.945312 202.847656 249.714844 203.339844 249.507812 203.839844 C 249.300781 204.339844 249.117188 204.851562 248.960938 205.371094 C 248.800781 205.890625 248.671875 206.417969 248.566406 206.949219 C 248.457031 207.480469 248.378906 208.015625 248.324219 208.558594 C 248.273438 209.097656 248.246094 209.640625 248.246094 210.183594 C 248.246094 210.726562 248.273438 211.265625 248.324219 211.804688 C 248.378906 212.347656 248.457031 212.882812 248.566406 213.414062 C 248.671875 213.945312 248.800781 214.472656 248.960938 214.992188 C 249.117188 215.511719 249.300781 216.023438 249.507812 216.523438 C 249.714844 217.023438 249.945312 217.515625 250.203125 217.992188 C 250.457031 218.472656 250.738281 218.9375 251.039062 219.386719 C 251.339844 219.839844 251.664062 220.273438 252.007812 220.695312 C 252.351562 221.113281 252.714844 221.515625 253.097656 221.898438 C 253.484375 222.285156 253.882812 222.648438 254.304688 222.992188 C 254.722656 223.335938 255.15625 223.660156 255.609375 223.960938 C 256.058594 224.261719 256.523438 224.539062 257.003906 224.796875 C 257.480469 225.050781 257.972656 225.285156 258.472656 225.492188 C 258.976562 225.699219 259.484375 225.882812 260.003906 226.039062 C 260.523438 226.199219 261.050781 226.328125 261.582031 226.433594 C 262.113281 226.539062 262.648438 226.621094 263.191406 226.671875 C 263.730469 226.726562 264.269531 226.753906 264.8125 226.753906 C 265.355469 226.753906 265.898438 226.726562 266.4375 226.671875 C 266.976562 226.621094 267.511719 226.539062 268.046875 226.433594 C 268.578125 226.328125 269.105469 226.199219 269.621094 226.039062 C 270.140625 225.882812 270.652344 225.699219 271.152344 225.492188 C 271.65625 225.285156 272.144531 225.050781 272.625 224.796875 C 273.101562 224.539062 273.566406 224.261719 274.019531 223.960938 C 274.46875 223.660156 274.902344 223.335938 275.324219 222.992188 C 275.742188 222.648438 276.144531 222.285156 276.527344 221.898438 C 276.910156 221.515625 277.277344 221.113281 277.621094 220.695312 C 277.964844 220.273438 278.289062 219.839844 278.589844 219.386719 C 278.890625 218.9375 279.167969 218.472656 279.425781 217.992188 C 279.679688 217.515625 279.910156 217.023438 280.121094 216.523438 C 280.328125 216.023438 280.511719 215.511719 280.667969 214.992188 C 280.824219 214.472656 280.957031 213.945312 281.0625 213.414062 C 281.167969 212.882812 281.246094 212.347656 281.300781 211.804688 C 281.355469 211.265625 281.378906 210.726562 281.378906 210.183594 C 281.378906 209.640625 281.355469 209.097656 281.300781 208.558594 C 281.246094 208.015625 281.167969 207.480469 281.0625 206.949219 C 280.957031 206.417969 280.824219 205.890625 280.667969 205.371094 C 280.511719 204.851562 280.328125 204.339844 280.121094 203.839844 C 279.910156 203.339844 279.679688 202.847656 279.425781 202.371094 C 279.167969 201.890625 278.890625 201.425781 278.589844 200.976562 C 278.289062 200.523438 277.964844 200.089844 277.621094 199.667969 C 277.277344 199.25 276.910156 198.847656 276.527344 198.464844 C 276.144531 198.082031 275.742188 197.714844 275.324219 197.371094 C 274.902344 197.027344 274.46875 196.703125 274.019531 196.402344 C 273.566406 196.101562 273.101562 195.824219 272.625 195.566406 C 272.144531 195.3125 271.65625 195.078125 271.152344 194.871094 C 270.652344 194.664062 270.140625 194.480469 269.621094 194.324219 C 269.105469 194.167969 268.578125 194.035156 268.046875 193.929688 C 267.511719 193.824219 266.976562 193.742188 266.4375 193.691406 C 265.898438 193.636719 265.355469 193.609375 264.8125 193.609375 Z M 264.8125 215.707031 C 264.449219 215.707031 264.09375 215.671875 263.734375 215.597656 C 263.378906 215.527344 263.035156 215.425781 262.699219 215.285156 C 262.363281 215.144531 262.046875 214.976562 261.746094 214.773438 C 261.445312 214.574219 261.164062 214.34375 260.910156 214.085938 C 260.652344 213.832031 260.421875 213.550781 260.222656 213.25 C 260.019531 212.949219 259.851562 212.628906 259.710938 212.296875 C 259.574219 211.960938 259.46875 211.617188 259.398438 211.257812 C 259.328125 210.902344 259.292969 210.542969 259.292969 210.183594 C 259.292969 209.820312 259.328125 209.460938 259.398438 209.105469 C 259.46875 208.75 259.574219 208.402344 259.710938 208.066406 C 259.851562 207.734375 260.019531 207.414062 260.222656 207.113281 C 260.421875 206.8125 260.652344 206.53125 260.910156 206.277344 C 261.164062 206.019531 261.445312 205.789062 261.746094 205.589844 C 262.046875 205.386719 262.363281 205.21875 262.699219 205.078125 C 263.035156 204.941406 263.378906 204.835938 263.734375 204.765625 C 264.09375 204.695312 264.449219 204.65625 264.8125 204.65625 C 265.175781 204.65625 265.535156 204.695312 265.890625 204.765625 C 266.246094 204.835938 266.59375 204.941406 266.925781 205.078125 C 267.261719 205.21875 267.582031 205.386719 267.882812 205.589844 C 268.183594 205.789062 268.460938 206.019531 268.71875 206.277344 C 268.976562 206.53125 269.203125 206.8125 269.40625 207.113281 C 269.605469 207.414062 269.777344 207.734375 269.914062 208.066406 C 270.054688 208.402344 270.160156 208.75 270.230469 209.105469 C 270.300781 209.460938 270.335938 209.820312 270.335938 210.183594 C 270.335938 210.542969 270.300781 210.902344 270.230469 211.257812 C 270.160156 211.617188 270.054688 211.960938 269.914062 212.296875 C 269.777344 212.628906 269.605469 212.949219 269.40625 213.25 C 269.203125 213.550781 268.976562 213.832031 268.71875 214.085938 C 268.460938 214.34375 268.183594 214.574219 267.882812 214.773438 C 267.582031 214.976562 267.261719 215.144531 266.925781 215.285156 C 266.59375 215.425781 266.246094 215.527344 265.890625 215.597656 C 265.535156 215.671875 265.175781 215.707031 264.8125 215.707031 Z M 264.8125 215.707031 " fill-opacity="1" fill-rule="nonzero"/></svg>